# xmcd
#
# Track frame offsets:
#	150
#	20531
#	29388
#	44062
#	61794
#	81428
#	100144
#	111967
#	130504
#	149267
#	163543
#	178387
#	194324
#	215306
#
# Disc length: 3231 seconds
#
# Revision: 3
# Processed by: cddbd v1.5.2PL0 Copyright (c) Steve Scherf et al.
# Submitted via: EasyCDDAExtractor 12.0.1.1
#
DISCID=c50c9d0e
DTITLE=Nitty Gritty Dirt Band - Will The Circle Be Unbroken, Vol. 3 [cd2]
DYEAR=2002
DGENRE=Country
TTITLE0=Taj Mahal With Vassar Clements - Fishin' Blues
TTITLE1=Jimmy Martin - Save It, Save It
TTITLE2=Dwight Yoakam - Wheels
TTITLE3=Willie Nelson - Roll In My Sweet Baby's Arms
TTITLE4=Matraca Berg And Emmylou Harris - Oh Cumberland
TTITLE5=Doc Watson With Richard Watson - I Am A Pilgrim
TTITLE6=Earl Scruggs - Sallie Ann
TTITLE7=Alison Krauss - Catfish John
TTITLE8=Roll The Stone Away
TTITLE9=Vince Gill - All Prayed Up
TTITLE10=Jerry Douglas, Glen Duncan, Ronnie McCoury and Tony Rice - Return To Di
TTITLE10=smal Swamp II
TTITLE11=Rodney Dillard And Ricky Skaggs - There Is A Time
TTITLE12=Taj Mahal - Will The Circle Be Unbroken (Glory, Glory)
TTITLE13=Randy Scruggs - Farther Along
EXTD=
EXTT0=
EXTT1=
EXTT2=
EXTT3=
EXTT4=
EXTT5=
EXTT6=
EXTT7=
EXTT8=
EXTT9=
EXTT10=
EXTT11=
EXTT12=
EXTT13=
PLAYORDER=
